<svg id="레이어_1" data-name="레이어 1" xmlns="http://www.w3.org/2000/svg" viewBox="0 0 300 300"><defs><style>.cls-1,.cls-3{fill:none;stroke-linejoin:round;}.cls-1,.cls-3,.cls-4{stroke:#e0de1b;}.cls-1,.cls-4{stroke-width:10px;}.cls-2,.cls-4{fill:#e0de1b;}.cls-3{stroke-linecap:round;stroke-width:13px;}.cls-4{stroke-miterlimit:10;}</style></defs><rect class="cls-1" x="5" y="5" width="290" height="290"/><path class="cls-2" d="M264.35,156.81c0-1.65-.87-2-1.94-.71l-55.76,65.8a1.93,1.93,0,0,1-3.38-.34L143.9,113.64a2.05,2.05,0,0,0-3.5-.45L37.71,222c-1.13,1.2-.71,2.2.94,2.21l222.7,2a3,3,0,0,0,3-3Z"/><path class="cls-3" d="M264.35,156.81c0-1.65-.87-2-1.94-.71l-55.76,65.8a1.93,1.93,0,0,1-3.38-.34L143.9,113.64a2.05,2.05,0,0,0-3.5-.45L37.71,222c-1.13,1.2-.71,2.2.94,2.21l222.7,2a3,3,0,0,0,3-3Z"/><circle class="cls-4" cx="222.9" cy="92.23" r="6.42"/></svg>