<?xml version="1.0" encoding="UTF-8"?><svg id="a" xmlns="http://www.w3.org/2000/svg" viewBox="0 0 276.69 269.46"><defs><style>.b{fill:none;stroke:#4c4c4c;stroke-miterlimit:10;stroke-width:10px;}</style></defs><path class="b" d="M180.33,97.53l89.9,128.73c2.68,4.06,1.57,9.52-2.49,12.2l-2.07,1.37c-4.06,2.68-9.52,1.57-12.2-2.49l-75.83-108.58-14.07-20.15"/><path class="b" d="M189,78.47c-2.98,22.2-22.79,37.86-44.24,34.98s-23.7-42.89-20.72-65.09c2.98-22.2,9.96-.44,31.41,2.44,21.45,2.88,36.53,5.47,33.55,27.67Z"/><path class="b" d="M200.33,123.56c24.41-7.84,45.8-3.27,52.72-9.77,6.16-5.78,7.1-17.02,3.99-25.22C231.68,21.63,156.58-11.97,89.3,13.53,22.02,39.02-11.96,113.95,13.4,180.89c25.36,66.94,100.47,100.54,167.75,75.04,9.91-3.76,28.35-11.95,26.42-21.91-4.09-21.13-31.46-18.9-43.99-35.15-6.74-8.73-5.61-14.51-4-24.43,2.94-18.11,14.52-29.61,23.23-38.32"/><circle class="b" cx="57.78" cy="102.95" r="25.25"/><circle class="b" cx="91.78" cy="210.45" r="19.83"/><circle class="b" cx="52.36" cy="164.69" r="19.83"/></svg>