<svg id="레이어_1" data-name="레이어 1" xmlns="http://www.w3.org/2000/svg" viewBox="0 0 276.69 269.46"><defs><style>.cls-1{fill:none;stroke:#e0de1b;stroke-miterlimit:10;stroke-width:10px;}</style></defs><path class="cls-1" d="M180.33,97.53l89.9,128.73a8.8,8.8,0,0,1-2.49,12.2l-2.07,1.36a8.79,8.79,0,0,1-12.19-2.48L177.65,128.75l-14.07-20.14"/><path class="cls-1" d="M189,78.47c-3,22.2-22.78,37.86-44.23,35s-23.71-42.89-20.72-65.09,10-.44,31.41,2.44S192,56.27,189,78.47Z"/><path class="cls-1" d="M200.33,123.56c24.41-7.84,45.8-3.27,52.73-9.77,6.15-5.77,7.09-17,4-25.22C231.68,21.63,156.58-12,89.3,13.53S-12,114,13.4,180.89s100.47,100.54,167.75,75.05c9.92-3.76,28.35-11.95,26.42-21.92-4.09-21.13-31.46-18.9-44-35.14-6.74-8.73-5.61-14.51-4-24.44,2.94-18.1,14.53-29.61,23.23-38.32"/><circle class="cls-1" cx="57.78" cy="102.95" r="25.25"/><circle class="cls-1" cx="91.78" cy="210.45" r="19.83"/><circle class="cls-1" cx="52.36" cy="164.69" r="19.83"/></svg>